21.1539 15.7018 -16.4311 4 1 l1
30.7772 26.2572 -2.4466 4 1 l2
35.0947 26.5781 -13.9319 4 1 l3
17.2948 26.2818 -17.3291 4 1 l4
16.7929 36.0591 -18.28 4 1 l5
26.5326 38.3565 -8.6573 4 1 l6
15.5001 48.6744 -14.9418 4 1 l7
44.1155 36.0105 -7.6466 4 1 l8
37.7296 47.5184 -4.6304 4 1 l9
9.2745 61.8844 -7.0525 4 1 l10
8.4581 56.4754 -4.5882 4 1 l11
9.7594 46.1664 -7.6297 4 1 l12
7.7918 37.866 -14.0556 4 1 l13
7.4579 29.5055 -18.4893 4 1 l14
7.7622 19.9157 -13.0258 4 1 l15
39.761 29.9162 4.282 4 1 l16
46.466 25.2269 9.5733 4 1 l17
49.0714 33.0815 3.0252 4 1 l18
44.5442 31.923 10.7526 4 1 l19
49.7642 21.7629 18.7996 4 1 l20
39.3549 15.4311 12.1771 4 1 l21
48.2965 11.2383 11.4274 4 1 l22
38.6829 14.7379 23.6966 4 1 l23
27.4056 31.6984 36.3554 4 1 l24
42.3698 25.9146 33.1001 4 1 l25
40.7665 30.1211 22.4855 4 1 l26
38.2965 34.7904 29.5398 4 1 l27
30.2671 38.3863 25.1375 4 1 l28
37.1101 42.795 17.1703 4 1 l29
38.0926 46.2017 8.9243 4 1 l30
26.6897 48.6916 15.1023 4 1 l31
21.9779 47.0994 30.7376 4 1 l32
20.3115 56.8042 18.737 4 1 l33
20.0271 58.275 1.6364 4 1 l34
31.1696 50.1884 2.9108 4 1 l35
25.6911 56.1273 -8.7359 4 1 l36
10.415 61.3746 10.4741 4 1 l37
12.5861 46.063 13.8136 4 1 l38
8.7999 53.5428 20.2682 4 1 l39
10.8907 54.4126 29.1643 4 1 l40
10.5126 39.7412 28.3731 4 1 l41
12.1674 45.2966 39.9325 4 1 l42
18.935 32.7732 41.9142 4 1 l43
8.4351 32.652 41.7851 4 1 l44
16.0567 28.5111 50.4855 4 1 l45
11.7763 22.6283 56.9083 4 1 l46
10.6432 14.5665 44.4642 4 1 l47
9.2741 11.5781 55.7291 4 1 l48
21.5259 13.9486 52.2908 4 1 l49
21.4275 3.3421 56.7015 4 1 l50
11.871 9.808 63.9934 4 1 l51
8.6572 -1.4451 56.256 4 1 l52
15.0224 -0.8 66.4977 4 1 l53
30.8748 3.4149 51.1907 4 1 l54
32.4163 11.6231 52.8089 4 1 l55
39.1407 9.2631 47.4232 4 1 l56
36.3635 14.4513 36.6879 4 1 l57
33.111 22.2529 46.7321 4 1 l58
45.2175 2.6314 13.4773 4 1 l59
55.4649 3.3763 10.5857 4 1 l60
55.6399 -1.7133 14.2618 4 1 l61
52.2561 4.9361 24.0504 4 1 l62
44.7269 1.6058 34.6616 4 1 l63
51.1881 -4.0363 30.3303 4 1 l64
36.9594 -14.4493 42.2555 4 1 l65
49.7822 -5.0372 42.5377 4 1 l66
43.3566 -1.0913 48.2518 4 1 l67
36.8943 -7.7851 52.2086 4 1 l68
30.1718 -23.959 52.0881 4 1 l69
32.6476 -17.164 64.8894 4 1 l70
25.455 -10.6521 56.378 4 1 l71
17.6285 -14.8553 67.9636 4 1 l72
16.6679 -25.934 62.4151 4 1 l73
10.5498 -23.0068 72.4304 4 1 l74
7.3002 -37.4208 67.789 4 1 l75
4.6235 -27.0771 69.032 4 1 l76
6.6102 -15.0128 68.5862 4 1 l77
9.0593 -15.0558 52.8773 4 1 l78
7.9272 -29.2956 54.8095 4 1 l79
16.0807 -33.2946 47.1711 4 1 l80
7.1421 34.5735 1.1943 4 1 l81
9.2252 35.536 14.0861 4 1 l82
7.2566 27.4043 20.9562 4 1 l83
8.3798 23.1601 29.1984 4 1 l84
5.9169 11.0496 32.0455 4 1 l85
6.0156 -0.5151 37.7758 4 1 l86
9.1322 -11.4847 42.401 4 1 l87
4.9444 -19.7603 33.2127 4 1 l88
10.5545 -28.8855 40.3911 4 1 l89
6.0878 -39.1626 30.7976 4 1 l90
9.9202 -45.3126 11.3657 4 1 l91
43.9373 -9.6057 19.2187 4 1 l92
58.2313 -9.1552 15.9208 4 1 l93
57.9404 -9.7237 24.8782 4 1 l94
55.7069 -12.5751 34.6245 4 1 l95
44.2216 -18.1045 43.6587 4 1 l96
51.2373 -18.785 45.6817 4 1 l97
43.5404 -21.7351 55.9934 4 1 l98
39.9885 -29.9642 51.7087 4 1 l99
35.3313 -30.2336 62.333 4 1 l100
29.4285 -34.0292 60.8725 4 1 l101
24.9011 -31.5253 67.6273 4 1 l102
13.8087 -33.9392 72.7753 4 1 l103
39.3048 -33.2582 39.7973 4 1 l104
47.6347 -37.3273 43.375 4 1 l105
52.9708 -41.7476 40.3031 4 1 l106
58.288 -40.3506 26.7658 4 1 l107
57.2151 -31.4363 38.7746 4 1 l108
53.5692 -25.3073 37.1364 4 1 l109
55.0262 -20.7685 24.1118 4 1 l110
49.2677 -33.8517 26.7657 4 1 l111
39.9328 -26.5221 22.1602 4 1 l112
30.8413 -43.1704 46.9135 4 1 l113
26.5337 -42.1359 59.1343 4 1 l114
14.2145 -43.7948 72.4889 4 1 l115
16.6558 -50.2841 64.2577 4 1 l116
13.8834 -63.3775 61.4372 4 1 l117
29.5065 -51.7967 62.4755 4 1 l118
27.2846 -56.5647 49.5227 4 1 l119
19.6988 -61.3528 54.8411 4 1 l120
15.0748 -71.9968 47.9237 4 1 l121
23.281 -63.2067 41.6355 4 1 l122
26.4765 -71.7721 28.7344 4 1 l123
20.0099 -79.851 41.0285 4 1 l124
12.7249 -86.5986 31.7254 4 1 l125
38.3505 -52.0234 40.755 4 1 l126
46.6518 -55.5761 44.1582 4 1 l127
52.381 -48.5157 34.4152 4 1 l128
47.3685 -51.1248 26.234 4 1 l129
40.4019 -65.9635 42.5666 4 1 l130
33.5874 -64.5019 44.3044 4 1 l131
37.7581 -72.2292 35.0078 4 1 l132
43.8022 -63.6252 27.9077 4 1 l133
47.6417 -55.1978 17.4381 4 1 l134
40.3157 -61.2649 15.3821 4 1 l135
42.3319 -74.1132 19.0498 4 1 l136
35.2733 -75.9477 25.8677 4 1 l137
19.5365 -69.7342 30.3978 4 1 l138
21.6261 -58.0186 14.2616 4 1 l139
7.9184 -55.5458 19.7948 4 1 l140
15.5735 -61.6863 30.5861 4 1 l141
9.3449 -67.6945 42.2592 4 1 l142
7.0684 -61.3833 33.7705 4 1 l143
11.8573 -51.0649 35.1435 4 1 l144
8.0384 -57.4952 53.4058 4 1 l145
10.2277 -46.5973 62.7633 4 1 l146
11.2878 -42.9134 46.8804 4 1 l147
17.6742 -68.6723 18.7842 4 1 l148
9.0776 -74.8419 22.8426 4 1 l149
6.3861 -80.7514 25.1484 4 1 l150
7.8704 -89.0369 17.001 4 1 l151
18.5999 -68.0045 10.9849 4 1 l152
10.224 -75.3425 14.7267 4 1 l153
12.6997 -78.4832 6.0978 4 1 l154
12.7468 -89.9209 6.5403 4 1 l155
16.4633 -92.7636 17.3668 4 1 l156
19.1556 -98.2321 4.7642 4 1 l157
25.2742 -88.1109 16.1633 4 1 l158
30.1508 -84.3103 11.6132 4 1 l159
28.6507 -91.2283 -4.3166 4 1 l160
18.6521 -95.3427 -6.9234 4 1 l161
30.5531 -84.1948 -8.5342 4 1 l162
39.6097 -80.4601 0.8604 4 1 l163
44.6815 -75.3208 5.9399 4 1 l164
42.8433 -67.8588 -1.354 4 1 l165
10.4111 -86.5934 -6.1802 4 1 l166
20.0421 -73.5725 -4.8983 4 1 l167
6.7356 -71.8453 4.2029 4 1 l168
15.2269 -65.5036 -2.943 4 1 l169
25.9727 -54.2393 -3.1887 4 1 l170
15.3126 -57.041 -0.3815 4 1 l171
22.3354 -52.5628 1.1361 4 1 l172
31.1143 -70.909 -8.6219 4 1 l173
30.726 -59.5709 -9.6244 4 1 l174
40.0767 -62.2546 -11.4206 4 1 l175
36.1277 -51.742 -13.9165 4 1 l176
33.1481 -42.3501 -13.3915 4 1 l177
38.1016 -38.8869 -18.2648 4 1 l178
39.5306 -27.7731 -19.4328 4 1 l179
35.2999 -6.9311 -32.339 4 1 l180
21.6602 -36.3023 -8.0544 4 1 l181
33.4626 -32.6411 -11.9523 4 1 l182
28.4088 -21.5865 -21.7977 4 1 l183
26.633 -7.3399 -29.4786 4 1 l184
34.4527 10.0282 -31.9103 4 1 l185
40.7654 -1.2441 -36.9152 4 1 l186
47.0274 -11.5882 -31.6816 4 1 l187
52.8066 -18.0843 -25.6859 4 1 l188
51.5027 -28.1643 -22.3332 4 1 l189
52.6216 -40.3363 -17.5061 4 1 l190
50.7314 -51.8346 -11.8086 4 1 l191
50.7535 -56.283 -2.0537 4 1 l192
53.0681 -57.4743 6.125 4 1 l193
60.487 -44.1755 -3.3414 4 1 l194
64.2086 -34.6779 -7.8424 4 1 l195
49.8655 -32.0437 -5.9085 4 1 l196
53.4686 -18.6792 -13.9596 4 1 l197
59.6512 -27.6069 -12.8623 4 1 l198
59.0482 -13.3881 -18.7214 4 1 l199
54.7369 -5.7042 -24.0479 4 1 l200
48.1189 5.823 -31.2595 4 1 l201
52.1734 -42.9467 2.3072 4 1 l202
46.4794 -41.5089 8.5399 4 1 l203
57.3446 -36.2047 12.9839 4 1 l204
46.1846 -29.2937 10.3569 4 1 l205
62.0706 -32.8769 12.2345 4 1 l206
50.8655 -27.7062 1.0584 4 1 l207
61.6226 -21.2046 3.8815 4 1 l208
54.5858 -14.8945 4.3135 4 1 l209
55.6058 -11.2418 -3.5527 4 1 l210
49.9964 -2.158 -16.2987 4 1 l211
53.7476 3.5017 -9.5597 4 1 l212
46.1834 -15.6748 -2.6541 4 1 l213
43.4445 -2.0427 -17.0828 4 1 l214
46.3118 12.9194 -22.7877 4 1 l215
43.9791 -22.272 9.3002 4 1 l216
33.0689 -23.6092 17.3979 4 1 l217
35.6941 -17.7481 9.6259 4 1 l218
34.2771 0.9254 15.2355 4 1 l219
36.9982 -7.0565 3.5191 4 1 l220
36.7954 -2.0231 -11.09 4 1 l221
32.4786 11.2422 -6.5093 4 1 l222
31.2536 17.6519 9.0147 4 1 l223
-19.3347 18.3069 -16.4414 4 1 l224
-16.5701 33.1645 -17.1616 4 1 l225
-28.2547 23.3118 -15.7475 4 1 l226
-30.2459 27.1899 -1.5122 4 1 l227
-36.2492 27.414 -12.3019 4 1 l228
-26.7793 38.7907 -7.9799 4 1 l229
-14.393 49.4874 -15.7888 4 1 l230
-39.5427 37.6625 -9.7113 4 1 l231
-42.5303 42.2483 -7.9381 4 1 l232
-9.8861 63.937 -3.6174 4 1 l233
-8.1045 55.4132 -6.1812 4 1 l234
-12.2846 44.9789 -2.8195 4 1 l235
-7.049 44.9986 -18.0576 4 1 l236
-7.047 30.6556 -14.5449 4 1 l237
-7.6022 22.2521 -16.1601 4 1 l238
-43.982 34.7602 -1.3043 4 1 l239
-47.1334 31.2224 6.8656 4 1 l240
-37.3064 28.6142 6.8529 4 1 l241
-38.4181 17.9578 12.7386 4 1 l242
-47.1747 23.2961 16.2116 4 1 l243
-42.7253 11.9383 21.9068 4 1 l244
-48.3384 14.0427 11.3429 4 1 l245
-39.8185 29.502 22.1613 4 1 l246
-41.8607 28.2922 31.6172 4 1 l247
-28.6386 29.0608 37.1047 4 1 l248
-25.3522 39.0547 29.1126 4 1 l249
-38.723 38.6331 24.3123 4 1 l250
-38.167 44.7852 7.8613 4 1 l251
-34.5969 45.4419 19.8638 4 1 l252
-20.9053 50.7633 25.8916 4 1 l253
-24.9629 51.1129 11.149 4 1 l254
-34.6401 50.968 5.5508 4 1 l255
-22.4156 56.305 -9.1525 4 1 l256
-20.7747 56.7725 0.7318 4 1 l257
-10.7476 61.8235 8.8538 4 1 l258
-13.1345 59.3412 19.5742 4 1 l259
-10.877 52.0539 13.1704 4 1 l260
-11.517 42.0537 23.8482 4 1 l261
-10.0296 53.6654 32.0074 4 1 l262
-10.9003 43.1177 44.8164 4 1 l263
-8.502 35.6897 40.6518 4 1 l264
-11.5347 24.0454 36.6266 4 1 l265
-8.5429 28.0829 51.5994 4 1 l266
-18.0287 36.4583 43.0185 4 1 l267
-20.081 25.5564 48.2087 4 1 l268
-20.0852 11.2638 55.7032 4 1 l269
-9.3081 18.8292 61.2769 4 1 l270
-10.6916 7.1558 48.3977 4 1 l271
-8.4225 -0.594 55.7247 4 1 l272
-9.3598 -3.4844 65.2006 4 1 l273
-19.7739 1.7092 63.3194 4 1 l274
-15.7417 -3.7619 67.2302 4 1 l275
-30.3145 16.9061 44.7698 4 1 l276
-38.4048 20.2495 45.5766 4 1 l277
-38.1601 15.1785 34.4121 4 1 l278
-39.0932 6.7577 42.3019 4 1 l279
-32.1562 8.8424 52.4621 4 1 l280
-29.3212 0.171 50.1505 4 1 l281
-9.8167 -26.197 72.6106 4 1 l282
-16.5427 -28.9955 61.5764 4 1 l283
-16.9658 -18.2723 69.4999 4 1 l284
-23.9492 -12.3221 57.2138 4 1 l285
-29.8731 -15.73 66.7588 4 1 l286
-32.922 -19.869 64.4656 4 1 l287
-32.428 -22.9132 53.0194 4 1 l288
-40.5954 -10.396 55.5147 4 1 l289
-37.0939 -5.333 47.2218 4 1 l290
-48.0113 -1.8651 47.1198 4 1 l291
-44.386 -10.7324 40.6868 4 1 l292
-54.1106 -0.69 29.6262 4 1 l293
-51.0683 -0.235 35.6071 4 1 l294
-44.5334 2.2936 26.554 4 1 l295
-56.0492 1.1496 16.6446 4 1 l296
-48.6162 1.4661 10.545 4 1 l297
-7.2188 -20.9689 68.2467 4 1 l298
-9.3258 -39.7238 70.7501 4 1 l299
-9.066 -35.202 59.5228 4 1 l300
-8.0138 -22.7663 55.6297 4 1 l301
-14.2754 -23.7649 47.8642 4 1 l302
-4.8016 31.5427 1.2914 4 1 l303
-6.4051 34.5929 12.5015 4 1 l304
-4.2737 24.4208 20.4075 4 1 l305
-7.4412 13.3474 31.9372 4 1 l306
-5.6125 -0.3628 35.9251 4 1 l307
-4.948 -17.0426 33.5566 4 1 l308
-11.0983 -16.6132 41.3406 4 1 l309
-11.8377 -30.7359 40.5505 4 1 l310
-5.3785 -34.0566 29.6245 4 1 l311
-6.8091 -44.2978 26.3436 4 1 l312
-10.4357 -46.6294 8.1787 4 1 l313
-16.1468 -36.0693 73.0165 4 1 l314
-18.9256 -33.2799 67.5715 4 1 l315
-30.2488 -30.1666 58.5594 4 1 l316
-26.4324 -33.4379 66.5421 4 1 l317
-36.8808 -32.1678 64.2645 4 1 l318
-41.8964 -29.9881 50.6018 4 1 l319
-46.3973 -23.2235 60.2025 4 1 l320
-41.1351 -21.0377 43.471 4 1 l321
-50.7829 -22.153 46.5137 4 1 l322
-55.9764 -17.6866 41.3921 4 1 l323
-53.3871 -13.1354 33.4158 4 1 l324
-55.6327 -10.2628 27.4447 4 1 l325
-60.9705 -13.4801 20.8977 4 1 l326
-48.0739 -13.2852 18.6639 4 1 l327
-40.8021 -30.8221 22.3906 4 1 l328
-52.7544 -27.6505 22.9411 4 1 l329
-59.0909 -27.2464 29.4432 4 1 l330
-48.7411 -29.5118 36.2935 4 1 l331
-56.1552 -35.9778 37.5364 4 1 l332
-49.1985 -42.6243 26.5811 4 1 l333
-55.7365 -49.0614 29.5229 4 1 l334
-50.8027 -40.9675 44.9425 4 1 l335
-38.3415 -39.712 39.4814 4 1 l336
-49.1707 -49.3607 41.4677 4 1 l337
-16.6002 -47.5618 68.5977 4 1 l338
-24.1363 -45.8247 59.0451 4 1 l339
-33.0898 -40.1736 50.3945 4 1 l340
-34.7483 -48.8616 58.4571 4 1 l341
-30.1721 -49.6213 43.7596 4 1 l342
-25.1034 -60.4275 46.9222 4 1 l343
-26.0416 -58.033 59.6446 4 1 l344
-16.2063 -58.9243 61.6675 4 1 l345
-14.0159 -68.583 53.3465 4 1 l346
-17.3569 -75.8557 43.5597 4 1 l347
-23.1992 -67.4359 33.7749 4 1 l348
-21.7931 -82.139 23.3689 4 1 l349
-19.1263 -83.0343 35.9862 4 1 l350
-9.4672 -86.7313 31.8671 4 1 l351
-34.0165 -79.4373 18.0106 4 1 l352
-37.3537 -79.6878 28.7325 4 1 l353
-42.9611 -72.6467 23.1653 4 1 l354
-42.6479 -64.0262 16.5158 4 1 l355
-42.6433 -53.8528 20.6668 4 1 l356
-40.1617 -61.4089 31.4758 4 1 l357
-38.3757 -68.86 43.1446 4 1 l358
-30.7507 -66.5313 37.3792 4 1 l359
-39.5107 -56.5081 39.4143 4 1 l360
-48.8603 -57.0183 35.5173 4 1 l361
-13.3842 -47.2602 64.4422 4 1 l362
-16.2528 -40.8921 48.8105 4 1 l363
-11.5464 -45.5278 44.5613 4 1 l364
-9.2974 -54.0352 55.6944 4 1 l365
-8.29 -65.4732 47.3073 4 1 l366
-10.7646 -54.3898 35.573 4 1 l367
-7.4712 -63.9441 32.9669 4 1 l368
-12.1671 -69.896 37.4321 4 1 l369
-19.8432 -67.5865 25.9661 4 1 l370
-8.6885 -59.0962 21.8486 4 1 l371
-16.1261 -58.4213 13.2033 4 1 l372
-14.8025 -74.7941 22.8092 4 1 l373
-5.0904 -78.884 22.088 4 1 l374
-6.5559 -88.6715 16.8213 4 1 l375
-9.3979 -84.86 13.1598 4 1 l376
-13.183 -86.3861 5.311 4 1 l377
-17.3065 -71.1742 9.9621 4 1 l378
-13.7469 -96.746 14.677 4 1 l379
-27.8383 -89.0137 13.4256 4 1 l380
-24.6392 -92.7639 4.8389 4 1 l381
-15.4101 -98.0901 -2.4753 4 1 l382
-20.8884 -95.4013 -8.6666 4 1 l383
-32.931 -86.4309 -0.0339 4 1 l384
-41.2862 -80.1598 4.9856 4 1 l385
-45.2523 -73.5173 9.9834 4 1 l386
-42.7585 -67.0012 -0.2153 4 1 l387
-39.9546 -80.4596 -8.642 4 1 l388
-27.1415 -86.9483 -10.125 4 1 l389
-16.2911 -80.1491 -6.9584 4 1 l390
-6.7218 -85.783 -2.434 4 1 l391
-7.7411 -73.5242 1.2671 4 1 l392
-17.5781 -67.4208 -5.2558 4 1 l393
-13.1443 -64.1569 2.004 4 1 l394
-23.1028 -57.0172 3.5666 4 1 l395
-18.3688 -47.66 -3.9871 4 1 l396
-24.4333 -55.4976 -3.7665 4 1 l397
-30.5932 -61.3093 -9.4696 4 1 l398
-35.1638 -73.9768 -10.5576 4 1 l399
-40.3515 -62.2457 -13.2525 4 1 l400
-40.3757 -48.6791 -15.1595 4 1 l401
-32.9244 -45.7353 -10.3353 4 1 l402
-36.2511 -36.4723 -16.1347 4 1 l403
-37.2941 -23.6057 -20.3453 4 1 l404
-33.2831 -3.2849 -34.5008 4 1 l405
-27.7147 -21.4595 -23.3417 4 1 l406
-25.7671 -31.1424 -14.6622 4 1 l407
-23.5048 -39.3209 -7.0748 4 1 l408
-25.7602 -7.3786 -29.5739 4 1 l409
-33.6355 10.4005 -33.3171 4 1 l410
-40.4927 -2.7486 -35.6335 4 1 l411
-48.1615 -10.963 -32.1391 4 1 l412
-43.887 -19.9692 -23.8342 4 1 l413
-53.3754 -25.3001 -24.609 4 1 l414
-54.5477 -38.9973 -16.8313 4 1 l415
-48.6626 -37.9668 -20.9187 4 1 l416
-51.3649 -50.5179 -12.9823 4 1 l417
-50.8215 -59.5979 -4.1694 4 1 l418
-51.9705 -60.1557 8.7634 4 1 l419
-58.2089 -52.924 1.9742 4 1 l420
-57.4135 -39.2517 -6.3625 4 1 l421
-54.5461 -26.1036 -10.4792 4 1 l422
-58.9704 -18.3311 -17.1136 4 1 l423
-55.0675 -8.1475 -22.3492 4 1 l424
-48.7492 4.1454 -29.3101 4 1 l425
-57.2868 -38.4173 8.3725 4 1 l426
-51.5137 -43.5417 2.696 4 1 l427
-51.5708 -47.7495 13.0907 4 1 l428
-62.2522 -42.3515 15.7741 4 1 l429
-44.3682 -38.9359 15.9285 4 1 l430
-46.1477 -27.4749 7.4295 4 1 l431
-64.8375 -28.0652 6.4272 4 1 l432
-62.0627 -17.2371 2.1903 4 1 l433
-54.9084 -23.7046 -0.0277 4 1 l434
-53.5019 -6.8483 -7.6268 4 1 l435
-46.5179 -16.511 -2.9548 4 1 l436
-42.7678 -9.0625 -14.4111 4 1 l437
-49.3478 3.0618 -17.2092 4 1 l438
-40.9214 4.4415 -22.8037 4 1 l439
-48.379 -21.6755 7.0448 4 1 l440
-39.4893 -26.9537 11.2895 4 1 l441
-33.3788 -23.808 16.6341 4 1 l442
-36.1476 -14.7835 8.8819 4 1 l443
-36.4064 -3.6568 8.3108 4 1 l444
-36.4787 -5.3084 -9.8927 4 1 l445
-35.216 4.9535 -5.5978 4 1 l446
-31.304 13.8013 9.1514 4 1 l447
-29.9183 14.1263 -7.4905 4 1 l448
